<?xml version="1.0" encoding="utf-8"?>
<!-- Generator: Adobe Illustrator 27.5.0, SVG Export Plug-In . SVG Version: 6.00 Build 0)  -->
<svg version="1.1" id="Layer_1" xmlns="http://www.w3.org/2000/svg" xmlns:xlink="http://www.w3.org/1999/xlink" x="0px" y="0px"
	 viewBox="0 0 500 350" xml:space="preserve">
<path style="fill:#473D2E;" d="M474.441,193.655c-0.046,3.073-0.816,6.175-2.169,9.006c-1.377,2.82-3.29,5.418-5.666,7.624
	c-2.391,2.197-5.23,4.041-8.487,5.263c-0.808,0.349-1.615,0.546-2.422,0.766l-1.221,0.325c-0.403,0.115-0.825,0.212-1.243,0.267
	c-0.84,0.119-1.685,0.238-2.532,0.367c-0.854,0.092-1.711,0.087-2.583,0.119c-3.427,0.032-6.904-0.423-10.139-1.377
	c-3.248-0.927-6.367-2.192-9.326-3.661c-5.882-2.953-11.244-6.642-16.378-10.189c-5.229-3.573-10.501-7.381-15.744-11.079
	c-5.271-3.716-10.597-7.356-16.093-10.638c-5.496-3.275-11.167-6.221-17.048-8.366l-2.211-0.745c-0.738-0.236-1.464-0.531-2.212-0.7
	l-2.215-0.589l-1.106-0.302c-0.367-0.092-0.738-0.146-1.105-0.218c-2.963-0.633-5.918-0.979-8.877-1.179
	c-5.963-0.27-12.042,0.172-17.657,1.37c-5.615,1.202-10.836,3.211-14.753,6.388c-0.991,0.78-1.877,1.654-2.666,2.602
	c-0.821,0.924-1.504,1.945-2.097,3.037c-0.298,0.525-0.559,1.123-0.825,1.718c-0.285,0.601-0.459,1.206-0.698,1.813
	c-0.361,1.216-0.697,2.449-0.83,3.693c-0.311,2.481-0.068,5.009,0.712,7.412c0.398,1.202,0.903,2.386,1.55,3.506
	c0.294,0.569,0.67,1.101,1.01,1.656c0.399,0.518,0.748,1.06,1.179,1.555c1.119,1.381,2.381,2.633,3.739,3.771
	c1.065-1.037,1.954-2.174,2.628-3.34c1.275-2.184,1.821-4.486,1.721-6.477c-0.082-2-0.808-3.634-1.588-4.79
	c-0.783-1.17-1.601-1.899-2.16-2.39c-0.583-0.454-0.885-0.685-0.885-0.685s0.31,0.221,0.907,0.661
	c0.565,0.477,1.404,1.193,2.229,2.349c0.817,1.147,1.597,2.799,1.735,4.845c0.155,2.037-0.349,4.413-1.606,6.68
	c-0.665,1.211-1.541,2.386-2.601,3.477c2.56,2.093,5.454,3.8,8.399,5.13c4.717,2.102,9.67,3.313,14.46,3.679
	c4.789,0.367,9.487-0.119,13.492-1.752c3.986-1.624,7.097-4.611,8.235-8.244c1.228-3.61,0.807-7.427-0.011-10.767
	c-0.848-3.322-2.477-6.147-4.468-8.248c-1.981-2.106-4.33-3.446-6.569-4.074c-2.257-0.643-4.376-0.52-6.129-0.117
	c-0.358,0.094-0.689,0.206-1.019,0.312c3.056,0.979,4.909,4.149,4.18,7.333c-0.767,3.363-4.115,5.465-7.474,4.694
	c-3.358-0.762-5.459-4.116-4.697-7.469c0.522-2.297,2.243-4.001,4.358-4.611c1.032-0.793,2.395-1.592,4.128-2.146
	c2.011-0.604,4.551-0.837,7.226-0.126c2.656,0.681,5.404,2.238,7.661,4.634c2.258,2.387,4.046,5.59,4.973,9.268
	c0.432,1.827,0.758,3.744,0.809,5.781c0.045,2.018-0.189,4.156-0.904,6.243c-0.33,1.051-0.844,2.056-1.413,3.033
	c-0.638,0.944-1.316,1.886-2.156,2.688c-1.633,1.665-3.679,2.923-5.867,3.877c-4.418,1.849-9.418,2.45-14.502,2.226
	c-5.096-0.229-10.349-1.313-15.524-3.212c-3.586-1.35-7.187-3.092-10.551-5.46c-1.289,0.771-2.733,1.423-4.303,1.79
	c-1.602,0.412-3.317,0.643-5.074,0.56c-1.752-0.05-3.55-0.321-5.313-0.891c-1.771-0.55-3.532-1.279-5.174-2.293
	c-1.656-0.995-3.23-2.202-4.684-3.597c-1.441-1.404-2.722-3.037-3.785-4.816c-1.102-1.768-1.964-3.693-2.689-5.689
	c-0.758-2-1.284-4.082-1.716-6.211c-0.431-2.132-0.643-4.326-0.752-6.542c-0.083-2.216,0.036-4.459,0.321-6.709
	c0.334-2.234,0.89-4.475,1.716-6.634l0.679-1.605l0.798-1.514l0.807-1.519l0.918-1.456c2.45-3.881,5.478-7.402,8.85-10.503
	c6.771-6.193,14.95-10.79,23.53-13.097c1.082-0.248,2.147-0.56,3.225-0.75c1.091-0.17,2.165-0.395,3.252-0.512
	c1.083-0.087,2.165-0.208,3.234-0.266c1.06-0.034,2.114-0.064,3.161-0.092c1.046-0.032,2.083-0.064,3.119-0.096
	c1.037,0.011,2.065,0.078,3.078,0.11c1.023,0.044,2.033,0.085,3.041,0.131l0.744,0.03l0.743,0.08
	c0.495,0.057,0.981,0.115,1.472,0.167c7.846,0.789,15.007,2.459,21.31,4.707c1.611,0.482,3.12,1.145,4.611,1.73
	c1.48,0.603,2.95,1.149,4.321,1.84c0.711,0.337,1.408,0.663,2.091,0.995c-0.399-0.411-0.798-0.84-1.211-1.312
	c-1.004-1.172-2.059-2.542-2.953-4.225c-0.886-1.686-1.68-3.681-1.858-6.033c-0.174-2.401,0.481-4.909,1.729-7.127
	c1.263-2.215,3.125-4.213,5.519-5.473c1.189-0.615,2.519-1.048,3.886-1.14c1.372-0.09,2.752,0.153,3.973,0.672
	c1.216,0.525,2.258,1.289,3.156,2.147c0.895,0.89,1.573,1.913,2.064,2.979c0.973,2.117,1.234,4.377,0.812,6.311
	c-0.21,0.958-0.638,1.835-1.206,2.507c-0.592,0.663-1.321,1.078-2.01,1.28c-1.417,0.401-2.563,0.138-3.298-0.025
	c-0.376-0.078-0.656-0.184-0.853-0.241c-0.188-0.064-0.279-0.099-0.279-0.099s0.092,0.025,0.288,0.067
	c0.193,0.038,0.482,0.124,0.867,0.167c0.729,0.099,1.887,0.234,3.142-0.247c0.614-0.238,1.221-0.656,1.68-1.28
	c0.444-0.619,0.757-1.408,0.876-2.28c0.238-1.736-0.17-3.773-1.161-5.59c-0.495-0.906-1.155-1.743-1.953-2.429
	c-0.826-0.7-1.758-1.28-2.767-1.64c-1.014-0.351-2.088-0.468-3.147-0.342c-1.055,0.126-2.088,0.525-3.033,1.071
	c-1.89,1.122-3.408,2.872-4.403,4.757c-0.991,1.895-1.464,3.95-1.326,5.771c0.134,1.867,0.757,3.588,1.482,5.101
	c0.733,1.518,1.619,2.823,2.458,3.994c1.666,2.255,3.263,3.934,4.552,5.239c0.234,0.124,0.473,0.257,0.706,0.383
	c9.744,5.409,16.763,11.024,21.992,15.595c5.198,4.627,8.694,8.201,10.905,10.586c2.184,2.401,3.216,3.534,3.216,3.534
	s-1.133-1.041-3.5-3.253c-2.376-2.208-6.074-5.543-11.441-9.881c-5.387-4.296-12.52-9.583-22.204-14.682
	c-1.215-0.626-2.449-1.284-3.729-1.924c-1.303-0.587-2.638-1.198-4.005-1.81c-1.349-0.656-2.794-1.167-4.258-1.738
	c-1.463-0.555-2.939-1.184-4.51-1.64c-6.184-2.124-13.147-3.711-20.78-4.473c-0.483-0.058-0.96-0.115-1.433-0.168l-0.729-0.085
	l-0.73-0.028c-0.981-0.043-1.964-0.087-2.954-0.128c-0.982-0.037-1.991-0.105-3-0.114c-1.001,0.022-2.028,0.048-3.047,0.078
	c-1.027,0.023-2.051,0.048-3.092,0.078c-1.028,0.048-2.047,0.153-3.074,0.231c-1.027,0.104-2.046,0.312-3.073,0.461
	c-1.027,0.174-2.036,0.466-3.073,0.684c-8.171,2.138-16.103,6.461-22.694,12.336c-3.29,2.941-6.244,6.285-8.648,9.967l-0.898,1.383
	l-0.794,1.436l-0.785,1.437l-0.65,1.47c-0.809,1.991-1.358,4.078-1.707,6.202c-0.313,2.129-0.459,4.27-0.427,6.404
	c0.073,2.127,0.234,4.246,0.615,6.311c0.38,2.06,0.857,4.092,1.536,6.019c0.661,1.927,1.459,3.799,2.473,5.51
	c0.986,1.711,2.161,3.27,3.505,4.646c1.354,1.358,2.85,2.533,4.404,3.528c1.555,1.005,3.234,1.734,4.904,2.304
	c1.679,0.573,3.404,0.871,5.082,0.958c1.685,0.119,3.322-0.073,4.873-0.422c1.422-0.308,2.725-0.849,3.918-1.505
	c-1.29-0.936-2.537-1.963-3.73-3.101c-1.124-1.065-2.184-2.23-3.146-3.515c-0.978-1.266-1.85-2.656-2.602-4.138
	c-1.523-2.969-2.445-6.396-2.629-9.909c-0.114-1.771,0.023-3.532,0.234-5.294c0.155-0.863,0.275-1.758,0.486-2.61
	c0.206-0.857,0.413-1.72,0.716-2.6c0.568-1.764,1.33-3.49,2.271-5.121c0.936-1.647,2.051-3.2,3.299-4.627
	c1.238-1.438,2.605-2.757,4.056-3.945c1.449-1.193,2.991-2.278,4.587-3.232c1.588-0.97,3.229-1.835,4.909-2.58
	c1.679-0.769,3.395-1.436,5.138-2.017c6.964-2.298,14.259-3.349,21.781-3.218c3.776,0.131,7.606,0.542,11.341,1.271
	c0.473,0.087,0.958,0.156,1.422,0.264l1.381,0.34c0.922,0.238,1.854,0.468,2.776,0.706c0.939,0.209,1.816,0.551,2.725,0.833
	c0.908,0.292,1.811,0.589,2.716,0.89c7.175,2.542,13.69,6.014,19.722,9.726c6.033,3.73,11.583,7.759,16.863,11.771
	c2.639,2.007,5.198,4.023,7.722,5.988c2.514,1.955,5.005,3.895,7.469,5.817c2.504,1.936,4.876,3.813,7.243,5.552
	c2.349,1.733,4.688,3.32,7.015,4.738c2.326,1.377,4.651,2.523,6.959,3.403c2.313,0.909,4.597,1.367,6.849,1.574
	c0.556,0.018,1.12,0.097,1.675,0.078c0.551-0.019,1.11-0.055,1.656-0.078c0.28,0.005,0.555-0.041,0.826-0.097l0.807-0.137
	c0.56-0.092,1.11-0.161,1.579-0.326c1.985-0.523,3.913-1.477,5.588-2.739c1.678-1.257,3.119-2.812,4.188-4.527
	c1.064-1.721,1.743-3.588,1.987-5.46c0.247-1.871,0.05-3.747-0.52-5.551c-0.169-0.436-0.349-0.885-0.523-1.32
	c-0.078-0.234-0.192-0.42-0.293-0.629c-0.097-0.204-0.212-0.404-0.34-0.609c-0.469-0.813-1.06-1.607-1.693-2.361
	c-2.601-3.03-5.969-5.408-9.358-6.872c-3.399-1.475-6.964-1.982-9.873-1.06c-1.44,0.468-2.715,1.269-3.762,2.316
	c-1.031,1.044-1.82,2.313-2.445,3.608c-0.591,1.301-0.99,2.62-1.109,3.899c-0.105,1.272,0.027,2.51,0.445,3.573
	c0.403,1.074,1.092,1.955,1.886,2.615c0.807,0.643,1.725,1.046,2.619,1.243c0.261,0.06,0.514,0.096,0.775,0.124
	c-2.423-1.293-3.785-4.083-3.143-6.893c0.771-3.356,4.11-5.462,7.468-4.693c3.358,0.764,5.464,4.112,4.693,7.476
	c-0.752,3.321-4.032,5.404-7.358,4.716c-0.771,0.146-1.628,0.211-2.573,0.101c-1.022-0.129-2.124-0.482-3.166-1.146
	c-1.009-0.679-1.958-1.665-2.568-2.922c-0.651-1.243-0.978-2.721-1.005-4.267c-0.018-1.537,0.28-3.134,0.807-4.707
	c0.556-1.558,1.317-3.166,2.487-4.649c1.156-1.475,2.771-2.794,4.68-3.647c1.922-0.872,4.073-1.222,6.243-1.222
	s4.353,0.39,6.496,1.036c2.152,0.654,4.275,1.548,6.322,2.723c2.041,1.163,4.05,2.563,5.918,4.317
	c0.936,0.883,1.843,1.842,2.679,2.956c0.215,0.269,0.422,0.556,0.614,0.858c0.192,0.296,0.408,0.594,0.565,0.905
	c0.321,0.622,0.66,1.251,0.991,1.879C473.822,187.577,474.502,190.577,474.441,193.655z M280.127,166.369
	c-0.767,0.769-1.922,1.984-3.428,3.725c-1.522,1.727-3.381,4.004-5.862,6.586c-1.248,1.275-2.651,2.649-4.331,3.866
	c-1.679,1.217-3.633,2.309-5.918,2.654c-2.293,0.404-4.839,0.069-6.633-1.582c-1.822-1.622-2.738-4.384-2.689-7.12
	c0.019-2.746,0.958-5.546,2.624-7.693c0.84-1.076,1.862-1.987,2.986-2.672c1.11-0.677,2.335-1.105,3.537-1.053
	c1.201,0.016,2.331,0.52,3.197,1.273c0.858,0.757,1.491,1.743,1.831,2.764c0.72,2.056,0.348,4.158-0.547,5.533
	c-0.876,1.401-2.064,2.169-2.876,2.599c-0.393,0.233-0.743,0.351-0.968,0.449c-0.226,0.092-0.344,0.14-0.344,0.14
	s0.118-0.039,0.349-0.117c0.238-0.076,0.596-0.165,1.019-0.374c0.844-0.372,2.119-1.053,3.151-2.476
	c1.06-1.392,1.646-3.657,0.995-5.994c-0.311-1.163-0.94-2.328-1.899-3.292c-0.963-0.94-2.321-1.67-3.826-1.775
	c-1.5-0.161-3.027,0.287-4.367,1.002c-1.339,0.716-2.56,1.693-3.578,2.876c-1.109,1.292-1.963,2.794-2.555,4.411
	c-0.587-1.617-1.436-3.12-2.546-4.411c-1.028-1.183-2.243-2.161-3.588-2.876c-1.335-0.715-2.863-1.163-4.363-1.002
	c-1.5,0.105-2.863,0.835-3.821,1.775c-0.958,0.963-1.592,2.129-1.898,3.292c-0.661,2.337-0.064,4.602,0.986,5.994
	c1.041,1.422,2.307,2.104,3.16,2.476c0.422,0.208,0.775,0.298,1.01,0.374c0.233,0.078,0.349,0.117,0.349,0.117
	s-0.115-0.048-0.34-0.14c-0.22-0.099-0.569-0.216-0.973-0.449c-0.807-0.429-2.001-1.198-2.872-2.599
	c-0.899-1.374-1.266-3.477-0.55-5.533c0.344-1.021,0.977-2.007,1.834-2.764c0.872-0.752,1.996-1.257,3.194-1.273
	c1.202-0.053,2.431,0.376,3.546,1.053c1.119,0.686,2.143,1.597,2.978,2.672c1.665,2.147,2.615,4.947,2.633,7.693
	c0.046,2.736-0.872,5.498-2.688,7.12c-1.803,1.651-4.345,1.986-6.643,1.582c-2.279-0.346-4.239-1.438-5.914-2.654
	c-1.683-1.217-3.078-2.591-4.331-3.866c-2.482-2.581-4.344-4.859-5.863-6.586c-1.509-1.742-2.656-2.957-3.426-3.725
	c-0.789-0.752-1.17-1.083-1.17-1.083s1.17,1.831,3.573,5.576c1.267,1.922,2.872,4.411,5.285,7.269
	c1.225,1.413,2.629,2.946,4.463,4.372c1.812,1.404,4.12,2.78,6.982,3.226c1.381,0.222,2.899,0.27,4.436-0.074
	c1.532-0.342,3.083-1.083,4.275-2.245c1.005-0.964,1.767-2.16,2.28-3.438c0.518,1.278,1.28,2.475,2.29,3.438
	c1.188,1.162,2.734,1.903,4.266,2.245c1.542,0.345,3.064,0.296,4.441,0.074c2.863-0.445,5.17-1.821,6.986-3.226
	c1.831-1.426,3.239-2.959,4.455-4.372c2.413-2.858,4.023-5.346,5.284-7.269c2.409-3.746,3.583-5.576,3.583-5.576
	S280.916,165.617,280.127,166.369z M272.442,153.005c0.468-0.429,1.12-0.913,1.862-1.51c0.707-0.617,1.629-1.266,2.606-2.035
	c4.073-2.984,10.216-7.099,20.264-11.452c2.504-1.094,5.242-2.209,8.16-3.223c2.918-1.023,5.982-2.009,9.134-2.817
	c3.152-0.83,6.363-1.534,9.538-2.101c3.175-0.534,6.313-0.915,9.29-1.154c2.981-0.236,5.803-0.268,8.353-0.222
	c1.267,0.064,2.496,0.083,3.605,0.2c0.573,0.048,1.12,0.098,1.634,0.14c0.518,0.076,1.019,0.133,1.491,0.199
	c0.958,0.108,1.802,0.268,2.555,0.411c0.376,0.061,0.725,0.13,1.046,0.188c0.313,0.074,0.602,0.142,0.862,0.202
	c1.042,0.252,1.62,0.387,1.62,0.387s-0.52-0.282-1.468-0.798c-0.235-0.126-0.505-0.273-0.794-0.422
	c-0.304-0.143-0.624-0.293-0.978-0.454c-0.702-0.333-1.509-0.716-2.427-1.055c-0.468-0.186-0.945-0.376-1.45-0.576
	c-0.514-0.177-1.051-0.355-1.605-0.546c-1.109-0.393-2.34-0.704-3.624-1.087c-2.587-0.651-5.514-1.269-8.665-1.677
	c-3.147-0.404-6.515-0.658-9.987-0.702c-3.469-0.014-7.037,0.169-10.58,0.585c-3.546,0.395-7.046,1.076-10.395,1.936
	c-3.344,0.846-6.518,1.952-9.405,3.211c-5.766,2.487-10.271,5.636-13.552,8.788c-3.298,3.145-5.357,6.287-6.615,8.85
	c-0.605,1.316-1.072,2.442-1.329,3.463c-0.295,0.997-0.477,1.817-0.552,2.502c-0.165,1.339-0.137,1.973-0.137,1.973
	S271.461,153.835,272.442,153.005z M321.475,113.24c1.633,0.287,3.857,0.736,6.247,1.482c2.414,0.743,4.974,1.713,7.392,2.75
	c2.427,1.028,4.66,2.177,6.62,3.035c3.857,1.743,6.78,2.466,9.092,2.949c0.294,0.053,0.579,0.101,0.845,0.14
	c0.257,0.05,0.504,0.092,0.733,0.138c0.459,0.078,0.877,0.131,1.226,0.165c0.702,0.074,1.109,0.069,1.109,0.069
	s0.106-0.376,0.124-1.092c0.01-0.351,0-0.798-0.064-1.319c-0.032-0.264-0.064-0.555-0.138-0.846
	c-0.072-0.287-0.155-0.594-0.266-0.918c-0.229-0.638-0.5-1.397-0.935-2.122c-0.445-0.715-0.968-1.53-1.661-2.294
	c-0.349-0.373-0.729-0.75-1.146-1.138c-0.206-0.195-0.422-0.387-0.638-0.585c-0.244-0.167-0.473-0.346-0.721-0.525
	c-0.49-0.351-1.019-0.702-1.578-1.048c-0.559-0.317-1.174-0.617-1.811-0.909c-2.569-1.137-5.702-1.906-8.868-2.115
	c-3.165-0.225-6.358,0.03-9.107,0.555c-2.766,0.521-5.088,1.372-6.67,2.041c-0.794,0.34-1.399,0.69-1.821,0.895
	c-0.418,0.222-0.643,0.339-0.643,0.339s0.262,0.035,0.734,0.094C319.983,113.052,320.652,113.096,321.475,113.24z M357.601,124.521
	c0.404,1.025,0.996,1.746,1.396,2.202c0.412,0.457,0.701,0.672,0.701,0.672s0.353-0.147,0.882-0.447
	c0.55-0.296,1.215-0.759,2.014-1.324c0.403-0.285,0.808-0.606,1.197-0.956c0.431-0.335,0.854-0.707,1.238-1.119
	c0.858-0.798,1.588-1.752,2.372-2.915c0.771-1.174,1.542-2.62,2.523-4.129c0.972-1.507,2.179-3.044,3.445-4.388
	c0.609-0.695,1.275-1.28,1.866-1.853c0.615-0.546,1.193-1.014,1.68-1.429c1.027-0.78,1.66-1.25,1.66-1.25s-0.771-0.135-2.105-0.289
	c-0.651-0.035-1.464-0.078-2.376-0.057c-0.908,0.048-1.94,0.096-3.019,0.307c-2.165,0.369-4.63,1.154-6.849,2.478
	c-2.217,1.307-4.161,3.126-5.4,5.035c-1.267,1.899-1.739,3.847-1.876,5.452c-0.028,0.83,0.022,1.569,0.128,2.241
	C357.207,123.422,357.399,124.012,357.601,124.521z M220.099,168.834l-0.68-1.605l-0.798-1.514l-0.807-1.519l-0.917-1.456
	c-2.445-3.881-5.469-7.402-8.85-10.503c-6.767-6.193-14.951-10.79-23.52-13.097c-1.078-0.248-2.147-0.56-3.23-0.75
	c-1.092-0.17-2.166-0.395-3.257-0.512c-1.078-0.087-2.165-0.208-3.23-0.266c-1.064-0.034-2.11-0.064-3.16-0.092
	c-1.046-0.032-2.088-0.064-3.12-0.096c-1.032,0.011-2.06,0.078-3.079,0.11c-1.023,0.044-2.027,0.085-3.032,0.131l-0.757,0.03
	l-0.739,0.08c-0.491,0.057-0.986,0.115-1.473,0.167c-7.845,0.789-15.002,2.459-21.314,4.707c-1.605,0.482-3.111,1.145-4.597,1.73
	c-1.487,0.603-2.964,1.149-4.322,1.84c-0.716,0.337-1.413,0.663-2.11,0.995c0.408-0.411,0.812-0.84,1.22-1.312
	c1-1.172,2.06-2.542,2.963-4.225c0.881-1.686,1.67-3.681,1.849-6.033c0.174-2.401-0.482-4.909-1.73-7.127
	c-1.261-2.215-3.12-4.213-5.514-5.473c-1.193-0.615-2.514-1.048-3.89-1.14c-1.358-0.09-2.744,0.153-3.964,0.672
	c-1.225,0.525-2.275,1.289-3.156,2.147c-0.899,0.89-1.587,1.913-2.074,2.979c-0.972,2.117-1.233,4.377-0.807,6.311
	c0.206,0.958,0.633,1.835,1.202,2.507c0.587,0.663,1.321,1.078,2.014,1.28c1.408,0.401,2.56,0.138,3.298-0.025
	c0.376-0.078,0.652-0.184,0.844-0.241c0.193-0.064,0.294-0.099,0.294-0.099s-0.101,0.025-0.298,0.067
	c-0.198,0.038-0.482,0.124-0.863,0.167c-0.734,0.099-1.895,0.234-3.152-0.247c-0.605-0.238-1.215-0.656-1.67-1.28
	c-0.449-0.619-0.756-1.408-0.88-2.28c-0.229-1.736,0.165-3.773,1.161-5.59c0.496-0.906,1.165-1.743,1.959-2.429
	c0.826-0.7,1.762-1.28,2.762-1.64c1.019-0.351,2.092-0.468,3.147-0.342c1.064,0.126,2.092,0.525,3.037,1.071
	c1.89,1.122,3.414,2.872,4.404,4.757c0.991,1.895,1.468,3.95,1.331,5.771c-0.138,1.867-0.767,3.588-1.487,5.101
	c-0.734,1.518-1.614,2.823-2.459,3.994c-1.67,2.255-3.267,3.934-4.551,5.239c-0.239,0.124-0.468,0.257-0.707,0.383
	c-9.739,5.409-16.768,11.024-21.993,15.595c-5.202,4.627-8.688,8.201-10.904,10.586c-2.188,2.401-3.207,3.534-3.207,3.534
	s1.115-1.041,3.487-3.253c2.377-2.208,6.084-5.543,11.441-9.881c5.395-4.296,12.524-9.583,22.204-14.682
	c1.216-0.626,2.45-1.284,3.725-1.924c1.308-0.587,2.643-1.198,4.014-1.81c1.353-0.656,2.794-1.167,4.252-1.738
	c1.468-0.555,2.946-1.184,4.514-1.64c6.184-2.124,13.148-3.711,20.782-4.473c0.477-0.058,0.954-0.115,1.431-0.168l0.73-0.085
	l0.729-0.028c0.973-0.043,1.955-0.087,2.95-0.128c0.986-0.037,1.987-0.105,3-0.114c1.005,0.022,2.019,0.048,3.046,0.078
	c1.023,0.023,2.06,0.048,3.087,0.078c1.032,0.048,2.046,0.153,3.079,0.231c1.023,0.104,2.041,0.312,3.069,0.461
	c1.027,0.174,2.045,0.466,3.073,0.684c8.175,2.138,16.112,6.461,22.7,12.336c3.294,2.941,6.243,6.285,8.642,9.967l0.899,1.383
	l0.789,1.436l0.789,1.437l0.656,1.47c0.798,1.991,1.357,4.078,1.702,6.202c0.312,2.129,0.464,4.27,0.432,6.404
	c-0.069,2.127-0.239,4.246-0.615,6.311c-0.381,2.06-0.844,4.092-1.541,6.019c-0.661,1.927-1.459,3.799-2.469,5.51
	c-0.986,1.711-2.165,3.27-3.509,4.646c-1.353,1.358-2.84,2.533-4.399,3.528c-1.56,1.005-3.234,1.734-4.909,2.304
	c-1.679,0.573-3.399,0.871-5.079,0.958c-1.679,0.119-3.326-0.073-4.868-0.422c-1.431-0.308-2.734-0.849-3.927-1.505
	c1.294-0.936,2.537-1.963,3.739-3.101c1.115-1.065,2.179-2.23,3.143-3.515c0.972-1.266,1.849-2.651,2.602-4.138
	c1.528-2.969,2.444-6.396,2.628-9.909c0.111-1.771-0.018-3.532-0.238-5.294c-0.156-0.863-0.267-1.758-0.487-2.61
	c-0.197-0.857-0.403-1.72-0.715-2.6c-0.569-1.764-1.326-3.49-2.27-5.121c-0.937-1.647-2.042-3.2-3.29-4.627
	c-1.239-1.438-2.606-2.757-4.065-3.945c-1.45-1.193-2.991-2.278-4.579-3.232c-1.587-0.97-3.234-1.835-4.913-2.58
	c-1.675-0.769-3.39-1.436-5.134-2.017c-6.973-2.298-14.268-3.349-21.782-3.218c-3.78,0.131-7.602,0.542-11.35,1.271
	c-0.468,0.087-0.945,0.156-1.408,0.264l-1.381,0.34c-0.927,0.238-1.854,0.468-2.78,0.706c-0.936,0.209-1.816,0.551-2.73,0.833
	c-0.903,0.292-1.807,0.589-2.711,0.89c-7.175,2.542-13.68,6.014-19.717,9.726c-6.042,3.73-11.593,7.759-16.874,11.771
	c-2.637,2.007-5.197,4.023-7.721,5.988c-2.509,1.955-4.996,3.895-7.455,5.817c-2.505,1.936-4.891,3.813-7.249,5.552
	c-2.358,1.733-4.693,3.32-7.019,4.738c-2.33,1.377-4.656,2.523-6.964,3.403c-2.312,0.909-4.596,1.367-6.84,1.574
	c-0.56,0.018-1.124,0.097-1.674,0.078c-0.56-0.019-1.11-0.055-1.661-0.078c-0.28,0.005-0.551-0.041-0.816-0.097l-0.821-0.137
	c-0.546-0.092-1.105-0.161-1.578-0.326c-1.987-0.523-3.904-1.477-5.583-2.739c-1.68-1.257-3.12-2.812-4.193-4.527
	c-1.064-1.721-1.743-3.588-1.986-5.46c-0.238-1.871-0.051-3.747,0.528-5.551c0.174-0.436,0.339-0.885,0.514-1.32
	c0.078-0.234,0.192-0.42,0.293-0.629c0.101-0.204,0.211-0.404,0.339-0.609c0.468-0.813,1.064-1.607,1.698-2.361
	c2.597-3.03,5.973-5.408,9.368-6.872c3.39-1.475,6.95-1.982,9.863-1.06c1.449,0.468,2.72,1.269,3.752,2.316
	c1.037,1.044,1.826,2.313,2.454,3.608c0.601,1.301,0.986,2.62,1.106,3.899c0.11,1.272-0.028,2.51-0.45,3.573
	c-0.399,1.074-1.083,1.955-1.881,2.615c-0.798,0.643-1.716,1.046-2.615,1.243c-0.266,0.06-0.523,0.096-0.78,0.124
	c2.422-1.293,3.789-4.083,3.147-6.893c-0.762-3.356-4.111-5.462-7.469-4.693c-3.363,0.764-5.468,4.112-4.698,7.476
	c0.752,3.321,4.037,5.404,7.359,4.716c0.771,0.146,1.642,0.211,2.578,0.101c1.027-0.129,2.124-0.482,3.161-1.146
	c1.009-0.679,1.958-1.665,2.574-2.922c0.651-1.243,0.972-2.721,1-4.267c0.018-1.537-0.275-3.134-0.808-4.707
	c-0.555-1.558-1.312-3.166-2.486-4.649c-1.156-1.475-2.766-2.794-4.679-3.647c-1.908-0.872-4.079-1.222-6.239-1.222
	c-2.175,0-4.358,0.39-6.501,1.036c-2.147,0.654-4.262,1.548-6.308,2.723c-2.055,1.163-4.065,2.563-5.932,4.317
	c-0.936,0.883-1.839,1.842-2.67,2.956c-0.215,0.269-0.418,0.556-0.61,0.858c-0.198,0.296-0.417,0.594-0.569,0.905
	c-0.331,0.622-0.661,1.251-0.991,1.879c-1.188,2.615-1.881,5.615-1.817,8.693c0.055,3.073,0.816,6.175,2.174,9.006
	c1.367,2.82,3.285,5.418,5.67,7.624c2.376,2.197,5.221,4.041,8.469,5.263c0.816,0.349,1.619,0.546,2.426,0.766l1.225,0.325
	c0.408,0.115,0.821,0.212,1.239,0.267c0.844,0.119,1.688,0.238,2.542,0.367c0.849,0.092,1.707,0.087,2.569,0.119
	c3.432,0.032,6.909-0.423,10.148-1.377c3.257-0.927,6.367-2.192,9.322-3.661c5.881-2.953,11.249-6.642,16.377-10.189
	c5.23-3.573,10.501-7.381,15.745-11.079c5.275-3.716,10.597-7.356,16.103-10.638c5.486-3.275,11.157-6.221,17.047-8.366l2.202-0.745
	c0.743-0.236,1.468-0.531,2.211-0.7l2.221-0.589l1.101-0.302c0.367-0.092,0.743-0.146,1.119-0.218
	c2.955-0.633,5.9-0.979,8.863-1.179c5.968-0.27,12.047,0.172,17.662,1.37c5.61,1.202,10.831,3.211,14.753,6.388
	c0.991,0.78,1.872,1.652,2.661,2.602c0.807,0.924,1.504,1.945,2.092,3.037c0.307,0.525,0.564,1.123,0.826,1.718
	c0.284,0.601,0.458,1.206,0.697,1.813c0.372,1.216,0.697,2.449,0.826,3.693c0.321,2.481,0.078,5.009-0.702,7.412
	c-0.399,1.202-0.904,2.386-1.546,3.506c-0.303,0.569-0.674,1.101-1.014,1.656c-0.39,0.518-0.752,1.06-1.179,1.555
	c-1.12,1.381-2.386,2.633-3.744,3.771c-1.055-1.037-1.945-2.174-2.624-3.34c-1.266-2.184-1.821-4.486-1.715-6.477
	c0.078-2,0.798-3.634,1.578-4.79c0.789-1.17,1.605-1.899,2.161-2.39c0.583-0.454,0.885-0.685,0.885-0.685s-0.307,0.221-0.908,0.661
	c-0.559,0.477-1.404,1.193-2.229,2.349c-0.808,1.147-1.587,2.799-1.725,4.845c-0.161,2.037,0.349,4.413,1.601,6.68
	c0.665,1.211,1.537,2.386,2.602,3.477c-2.56,2.093-5.455,3.8-8.404,5.13c-4.716,2.102-9.667,3.313-14.46,3.679
	c-4.789,0.367-9.487-0.119-13.478-1.752c-3.987-1.624-7.102-4.611-8.239-8.244c-1.229-3.61-0.808-7.427,0.009-10.767
	c0.853-3.322,2.477-6.147,4.459-8.248c1.991-2.106,4.335-3.446,6.574-4.074c2.253-0.643,4.372-0.52,6.125-0.117
	c0.363,0.094,0.692,0.206,1.027,0.312c-3.06,0.979-4.908,4.149-4.184,7.333c0.761,3.363,4.11,5.465,7.469,4.694
	c3.362-0.762,5.468-4.116,4.697-7.469c-0.514-2.297-2.247-4.001-4.354-4.611c-1.032-0.793-2.39-1.592-4.128-2.146
	c-2.005-0.604-4.546-0.837-7.221-0.131c-2.656,0.686-5.409,2.243-7.656,4.639c-2.266,2.387-4.056,5.59-4.977,9.268
	c-0.427,1.827-0.762,3.744-0.808,5.781c-0.051,2.018,0.184,4.156,0.904,6.243c0.33,1.051,0.844,2.056,1.418,3.033
	c0.628,0.944,1.308,1.886,2.147,2.688c1.629,1.665,3.684,2.923,5.868,3.877c4.413,1.849,9.414,2.45,14.501,2.226
	c5.102-0.229,10.34-1.313,15.524-3.212c3.583-1.34,7.189-3.092,10.551-5.46c1.289,0.771,2.734,1.423,4.298,1.79
	c1.597,0.412,3.322,0.643,5.074,0.56c1.753-0.05,3.556-0.321,5.321-0.891c1.762-0.55,3.523-1.279,5.175-2.293
	c1.652-0.995,3.229-2.202,4.68-3.597c1.44-1.404,2.72-3.037,3.789-4.816c1.087-1.768,1.96-3.693,2.684-5.689
	c0.757-2,1.29-4.082,1.716-6.211c0.436-2.132,0.642-4.326,0.752-6.542c0.078-2.216-0.032-4.459-0.325-6.709
	C221.488,173.234,220.934,170.993,220.099,168.834z M166.544,123.604c-3.156,0.408-6.074,1.025-8.661,1.677
	c-1.294,0.383-2.514,0.695-3.624,1.087c-0.56,0.19-1.097,0.369-1.606,0.546c-0.504,0.2-0.991,0.39-1.449,0.576
	c-0.927,0.339-1.734,0.723-2.432,1.055c-0.353,0.161-0.679,0.312-0.973,0.454c-0.294,0.149-0.559,0.296-0.803,0.422
	c-0.94,0.516-1.458,0.798-1.458,0.798s0.568-0.135,1.614-0.387c0.262-0.06,0.546-0.128,0.867-0.202
	c0.316-0.058,0.665-0.126,1.046-0.188c0.743-0.143,1.597-0.303,2.551-0.411c0.477-0.066,0.973-0.123,1.486-0.199
	c0.527-0.042,1.069-0.092,1.633-0.14c1.119-0.117,2.34-0.135,3.605-0.2c2.564-0.046,5.377-0.014,8.359,0.222
	c2.982,0.239,6.115,0.62,9.285,1.154c3.175,0.567,6.395,1.271,9.537,2.101c3.152,0.808,6.226,1.794,9.139,2.817
	c2.913,1.014,5.666,2.129,8.162,3.223c10.047,4.353,16.189,8.468,20.258,11.452c0.982,0.769,1.899,1.418,2.61,2.035
	c0.748,0.597,1.39,1.081,1.858,1.51c0.986,0.83,1.551,1.204,1.551,1.204s0.018-0.633-0.147-1.973
	c-0.064-0.686-0.252-1.505-0.55-2.502c-0.257-1.021-0.725-2.147-1.322-3.463c-1.262-2.563-3.316-5.705-6.62-8.85
	c-3.289-3.151-7.79-6.301-13.556-8.788c-2.88-1.259-6.055-2.365-9.399-3.211c-3.345-0.86-6.85-1.542-10.396-1.936
	c-3.541-0.416-7.111-0.599-10.574-0.585C173.058,122.945,169.691,123.2,166.544,123.604z M146.368,123.899
	c0.349-0.034,0.766-0.087,1.225-0.165c0.225-0.046,0.473-0.087,0.734-0.138c0.271-0.039,0.555-0.087,0.839-0.14
	c2.321-0.483,5.239-1.206,9.102-2.949c1.954-0.858,4.184-2.007,6.615-3.035c2.422-1.037,4.982-2.007,7.386-2.75
	c2.395-0.746,4.615-1.195,6.253-1.482c0.826-0.144,1.482-0.188,1.96-0.257c0.467-0.06,0.715-0.094,0.715-0.094
	s-0.22-0.117-0.643-0.339c-0.413-0.205-1.023-0.555-1.816-0.895c-1.587-0.67-3.909-1.52-6.661-2.041
	c-2.762-0.525-5.955-0.78-9.12-0.555c-3.166,0.209-6.299,0.978-8.858,2.115c-0.643,0.291-1.248,0.592-1.821,0.909
	c-0.555,0.346-1.083,0.697-1.578,1.048c-0.243,0.179-0.477,0.358-0.711,0.525c-0.215,0.198-0.436,0.39-0.646,0.585
	c-0.413,0.388-0.793,0.764-1.138,1.138c-0.692,0.764-1.221,1.579-1.661,2.294c-0.44,0.725-0.711,1.484-0.936,2.122
	c-0.11,0.323-0.197,0.631-0.275,0.918c-0.064,0.291-0.102,0.582-0.138,0.846c-0.056,0.521-0.064,0.968-0.056,1.319
	c0.019,0.716,0.12,1.092,0.12,1.092S145.675,123.973,146.368,123.899z M124.76,110.263c0.601,0.573,1.261,1.158,1.876,1.853
	c1.252,1.344,2.463,2.881,3.436,4.388c0.981,1.509,1.757,2.955,2.523,4.129c0.793,1.163,1.519,2.117,2.381,2.915
	c0.381,0.413,0.803,0.784,1.234,1.119c0.386,0.351,0.794,0.672,1.193,0.956c0.808,0.565,1.473,1.027,2.019,1.324
	c0.532,0.3,0.876,0.447,0.876,0.447s0.289-0.216,0.702-0.672c0.395-0.456,0.991-1.177,1.395-2.202
	c0.211-0.509,0.395-1.099,0.533-1.771c0.096-0.672,0.146-1.411,0.128-2.241c-0.138-1.605-0.615-3.553-1.89-5.452
	c-1.229-1.909-3.175-3.728-5.395-5.035c-2.221-1.324-4.675-2.108-6.845-2.478c-1.078-0.211-2.115-0.259-3.019-0.307
	c-0.918-0.021-1.72,0.022-2.376,0.057c-1.349,0.154-2.106,0.289-2.106,0.289s0.629,0.47,1.656,1.25
	C123.567,109.249,124.155,109.717,124.76,110.263z"/>

</svg>
